# xmcd
#
# Track frame offsets:
#	150
#	9126
#	20873
#	30834
#	41095
#	52652
#	64189
#	76387
#	89742
#	99068
#	111756
#	123240
#	136968
#
# Disc length: 2017 seconds
# Revision: 0
# Processed by: cddbd v1.5.2PL0 Copyright (c) Steve Scherf et al.
# Submitted via: dBpowerAMP V12.0
#
DISCID=9607df0d
DTITLE=Maxim Turbulenc - Všecky pecky
DYEAR=2010
DGENRE=Country
TTITLE0=Bonanza
TTITLE1=Je nás jedenáct
TTITLE2=Ponny Expres
TTITLE3=Vejplata
TTITLE4=Až pojedu domů
TTITLE5=Chodím po Brodwayi
TTITLE6=Dva trempové
TTITLE7=Jackova píseň
TTITLE8=No to se ví
TTITLE9=Slepička
TTITLE10=Zuzana
TTITLE11=Skála
TTITLE12=V uličkách města Bakersfield
EXTD=
EXTT0=
EXTT1=
EXTT2=
EXTT3=
EXTT4=
EXTT5=
EXTT6=
EXTT7=
EXTT8=
EXTT9=
EXTT10=
EXTT11=
EXTT12=
PLAYORDER=
